<?xml version="1.0" encoding="utf-8"?>
<!-- Generator: Adobe Illustrator 19.0.0, SVG Export Plug-In . SVG Version: 6.00 Build 0)  -->
<svg version="1.1" id="Layer_2" xmlns="http://www.w3.org/2000/svg" xmlns:xlink="http://www.w3.org/1999/xlink" x="0px" y="0px"
	 viewBox="0 0 24 24" style="enable-background:new 0 0 24 24;" xml:space="preserve">
<polyline id="XMLID_150_" points="7.7,17.6 3.8,20.3 7.2,17 3.8,20.3 6.6,16.4 "/>
<polyline id="XMLID_147_" points="6,16.6 3.4,17 5.6,15.8 3.4,17 5.3,15.1 "/>
<polyline id="XMLID_151_" points="7.5,18.1 7.1,20.7 8.3,18.5 7.1,20.7 9,18.9 "/>
<path id="XMLID_153_" d="M23.1,14.9c-0.8,0-1.4-0.6-1.4-1.4c0,0.8-0.6,1.4-1.4,1.4c0.8,0,1.4,0.6,1.4,1.4
	C21.7,15.5,22.3,14.9,23.1,14.9z"/>
<path id="XMLID_152_" d="M9.4,2.6C8.6,2.6,8,2,8,1.2C8,2,7.4,2.6,6.6,2.6C7.4,2.6,8,3.3,8,4.1C8,3.3,8.6,2.6,9.4,2.6z"/>
<path id="XMLID_154_" d="M5,7.7c-1.1,0-2-0.9-2-2c0,1.1-0.9,2-2,2c1.1,0,2,0.9,2,2C3,8.6,3.9,7.7,5,7.7z"/>
<path id="XMLID_156_" d="M8.9,18.3l-3.1-3.1l0-0.9c-0.7-1-5,0.7-4.5-0.3s0.3-0.7,0.6-1.1s2-2.7,5.7-1.7C11.9,5,17,2.7,21,3.2
	c0.4,4-1.9,9.1-8,13.2c1,3.8-1.3,5.5-1.7,5.8s-0.1,0.1-1.1,0.6s0.7-3.8-0.3-4.5 M15.6,8.6c-0.8-0.8-2-0.8-2.8,0
	c-0.8,0.8-0.8,2,0,2.8c0.8,0.8,2,0.8,2.8,0C16.3,10.6,16.3,9.3,15.6,8.6z"/>
</svg>
