<?xml version="1.0" encoding="utf-8"?>
<!-- Generator: Adobe Illustrator 19.0.0, SVG Export Plug-In . SVG Version: 6.00 Build 0)  -->
<svg version="1.1" id="Layer_2" xmlns="http://www.w3.org/2000/svg" xmlns:xlink="http://www.w3.org/1999/xlink" x="0px" y="0px"
	 viewBox="0 0 24 24" style="enable-background:new 0 0 24 24;" xml:space="preserve">
<style type="text/css">
	.st0{fill:#FDE69D;}
</style>
<path d="M2,18.2L2,4.6C2,3.1,3.1,2,4.6,2h14.8C20.9,2,22,3.1,22,4.6v4c0,2.2,0,4.4,0,6.6c-2,0.3-4.1,0.6-6.1,0.9
	c0,0.1-0.1,0.2-0.1,0.3c-0.2,0.7-0.5,1.5-1,2.1c-0.2,0.3-0.5,0.6-0.8,0.9c-0.2,0.1-0.4,0.2-0.6,0.3c0-0.2,0-0.4,0.1-0.6
	c0-0.4,0-0.8-0.1-1.2c-0.1-0.4-0.3-0.8-0.7-1c-0.2,0-0.4,0.1-0.6,0.1c-0.7,0.1-1.3,0.2-2,0.3c-0.7,0.1-1.4,0.2-2,0.3
	c-0.7,0.1-1.3,0.2-2,0.3c-0.7,0.1-1.3,0.2-2,0.3C3.4,18,2.7,18.1,2,18.2z M9.7,8.8C9.7,8.8,9.7,8.8,9.7,8.8c0.3,0.4,0.6,0.8,0.8,1.2
	c0.1,0,0.2,0,0.3,0C11,9.5,11.2,9,11.3,8.6c0,0,0,0,0,0c0.1,0.4,0.1,0.9,0.2,1.3c0.4-0.1,0.7-0.1,1.1-0.2c-0.1-0.8-0.3-1.6-0.4-2.4
	c-0.3,0.1-0.7,0.1-1,0.2c-0.1,0.4-0.2,0.7-0.4,1.1c-0.2-0.3-0.4-0.7-0.6-1C9.8,7.7,9.4,7.7,9.1,7.8c0.1,0.8,0.3,1.6,0.4,2.4
	c0.2,0,0.3,0,0.4-0.1c0-0.1,0-0.1,0-0.1C9.8,9.6,9.7,9.2,9.7,8.8z M13.2,12.7c0-0.1,0.1-0.1,0.1-0.1c0.2-0.2,0.2-0.5,0.2-0.8
	c-0.1-0.4-0.3-0.9-1-0.9c-0.3,0-0.5,0.1-0.8,0.1c-0.1,0-0.2,0-0.2,0.1c0,0.1,0.4,3.1,0.4,3.2c0.2,0,0.5,0,0.8-0.1c0-0.2,0-0.4,0-0.5
	c0-0.2-0.1-0.3,0-0.5c0.2,0.3,0.4,0.6,0.6,0.9c0.3,0,0.5,0,0.8-0.1c0,0,0,0,0-0.1C13.7,13.5,13.4,13.1,13.2,12.7z M16.5,13.6
	c0-0.3-1.1-2.8-1.2-3c-0.2,0-1,0.1-1.2,0.2c0,0.2-0.1,2.9-0.1,3.1c0,0,0,0.1,0.1,0.1c0.2,0,0.4,0,0.7-0.1c0-0.1,0-0.3,0-0.4
	c0-0.1,0-0.3,0-0.4c0.2-0.1,0.4-0.1,0.6-0.1c0.2,0.3,0.2,0.6,0.3,0.8C16,13.7,16.2,13.6,16.5,13.6z M8.1,15c0.1-0.3,0.1-0.6,0.2-0.9
	c0.2,0.2,0.3,0.5,0.5,0.7c0.3-0.1,0.6-0.1,0.8-0.2c0-0.1-0.1-0.2-0.2-0.3C9.3,14,9,13.7,8.8,13.3c-0.1-0.1-0.1-0.2,0-0.4
	c0.1-0.4,0.3-0.8,0.4-1.2c0-0.1,0.1-0.1,0-0.2c-0.2,0-0.5,0-0.7,0.1c-0.1,0.4-0.2,0.7-0.3,1.1c-0.2-0.3-0.4-0.6-0.6-0.9
	c-0.3,0.1-0.5,0-0.8,0.1c0.4,0.5,0.7,0.9,1,1.5c-0.1,0.6-0.3,1.1-0.5,1.7C7.5,15.1,7.8,15,8.1,15z M12.6,7.2
	c0.1,0.8,0.3,1.6,0.4,2.4c0,0,0.1,0,0.1,0c0.4-0.1,0.7-0.1,1.1-0.2c0.3,0,0.5-0.1,0.7-0.2c0.4-0.2,0.5-0.5,0.3-0.9
	c-0.1-0.2-0.2-0.3-0.3-0.3c-0.1,0-0.1,0-0.2-0.1c0,0,0.1,0,0.1-0.1C15,7.8,15.1,7.7,15,7.5c0-0.2-0.1-0.3-0.3-0.4
	C14.6,7,14.4,7,14.2,7C13.7,7,13.2,7.2,12.6,7.2z M16.8,9.1c0.4,0,0.8-0.1,1.1-0.4c0.6-0.5,0.6-1.4-0.1-1.9
	c-0.7-0.5-1.7-0.3-2.2,0.4c-0.3,0.5-0.3,1.2,0.2,1.6C16.1,9,16.4,9.1,16.8,9.1z M5.3,12.1c-0.1,0.1,0,0.1,0,0.2
	c0.1,0.5,0.1,1,0.2,1.5c0.1,0.5,0.1,0.9,0.2,1.3c0,0.1,0,0.1,0.1,0.2c0.4-0.1,0.8-0.1,1.3-0.2c0-0.3-0.1-0.5-0.1-0.7
	c-0.2,0-0.4,0.1-0.5,0c0-0.2-0.1-0.3,0-0.5c0.2-0.1,0.3,0,0.5-0.1c0-0.2,0-0.4-0.1-0.5c-0.2-0.1-0.3,0.1-0.5,0
	c0-0.2-0.1-0.3-0.1-0.5c0.2-0.1,0.3,0,0.5-0.1c0-0.2-0.1-0.5-0.1-0.7C6.1,11.9,5.7,12,5.3,12.1z M18.6,10.1c0-0.1-0.1-0.1-0.1-0.1
	c-0.3-0.1-0.5-0.1-0.8,0c-0.4,0.1-0.6,0.4-0.6,0.7c-0.1,0.3,0.1,0.7,0.4,0.8c0.2,0.1,0.3,0.2,0.5,0.3c0.1,0.1,0.3,0.2,0.4,0.3
	c0.1,0.1,0.1,0.2,0,0.3c-0.1,0.1-0.1,0.1-0.2,0.1c-0.1,0-0.2,0-0.3-0.1c-0.1,0-0.1,0-0.2-0.1c-0.2,0.1-0.2,0.2-0.3,0.4
	c0.1,0.3,0.4,0.4,0.6,0.5c0.2,0.1,0.5,0,0.7-0.1c0.4-0.3,0.7-1.1,0.2-1.5c-0.1-0.1-0.3-0.3-0.4-0.3c-0.1-0.1-0.2-0.1-0.3-0.2
	c-0.1-0.1-0.2-0.2-0.1-0.4c0.1-0.1,0.2-0.1,0.3-0.1c0.1,0,0.2,0,0.3,0C18.5,10.5,18.5,10.3,18.6,10.1z M8.7,7.9
	c-0.2,0-0.3,0-0.4,0.1c0,0,0,0.1,0,0.1c0.1,0.4,0.1,0.9,0.2,1.3c0,0.2,0.1,0.4,0.1,0.5c0,0.1-0.1,0.2-0.2,0.2c-0.1,0-0.2,0-0.3-0.1
	C8,9.9,8,9.8,7.9,9.7C7.9,9.4,7.8,9,7.8,8.6c0-0.2-0.1-0.4-0.1-0.6C7.3,8.1,7,8.1,6.6,8.2c0.1,0.3,0.1,0.7,0.2,1
	c0,0.3,0.1,0.5,0.1,0.8c0.1,0.3,0.3,0.5,0.6,0.5c0.3,0.1,0.7,0,1-0.1C8.8,10.3,9,10,8.9,9.6c0-0.1,0-0.3-0.1-0.4
	C8.8,8.7,8.7,8.3,8.7,7.9z M9.3,11.4c0.1,0.3,0.1,0.5,0.1,0.8c0.2,0,0.3-0.1,0.5,0c0,0.1,0,0.2,0,0.2c0.1,0.6,0.2,1.2,0.2,1.8
	c0,0.1,0,0.2,0.1,0.4c0.2,0,0.5,0,0.7-0.1c-0.1-0.8-0.2-1.6-0.3-2.4c0.2-0.1,0.3,0,0.4-0.1c0-0.2-0.1-0.6-0.2-0.8
	C10.5,11.2,9.9,11.3,9.3,11.4z M5.2,8.4c0,0.1,0,0.1,0,0.1c0,0.3,0.1,0.5,0.1,0.8c0,0.3,0.1,0.6,0.1,0.9c0,0.2-0.1,0.4-0.3,0.4
	c-0.1,0-0.1,0-0.2,0c0,0.1,0,0.2,0,0.2c0,0,0.1,0,0.1,0c0.5,0,0.8-0.1,1.2-0.4c0.2-0.2,0.3-0.4,0.2-0.7C6.5,9.6,6.4,9.3,6.4,9
	c0-0.2-0.1-0.5-0.1-0.7C5.9,8.3,5.6,8.4,5.2,8.4z M16.3,11.1c0,0.1-0.1,0.1-0.2,0.2c0,0.1,0,0.2,0,0.3c0.2,0,0.4-0.1,0.5-0.2
	c0.2-0.4,0.1-0.7,0-1.1c-0.3,0-0.5,0.1-0.7,0.2c0,0.2,0,0.4,0,0.6c0.1,0,0.2,0,0.3,0C16.3,11,16.3,11,16.3,11.1z"/>
<path class="st0" d="M9.7,8.8C9.7,8.8,9.6,8.8,9.7,8.8C9.7,8.8,9.7,8.8,9.7,8.8C9.7,8.8,9.7,8.8,9.7,8.8z"/>
<path d="M12.2,11.6c0.3,0,0.5,0.1,0.6,0.4c0,0.2-0.1,0.4-0.4,0.4C12.3,12.1,12.2,11.9,12.2,11.6z"/>
<path d="M14.8,11.3c0.2,0.3,0.3,0.6,0.4,1c-0.2,0.1-0.3,0.1-0.5,0.1C14.7,12.2,14.7,11.5,14.8,11.3z"/>
<path d="M14,9.2c-0.1-0.3-0.1-0.7-0.1-1c0.3-0.1,0.5,0.1,0.6,0.4C14.5,9,14.3,9.2,14,9.2z"/>
<path d="M13.8,8c0-0.2-0.1-0.5-0.1-0.7c0.2-0.1,0.3-0.1,0.4,0.1c0.1,0.1,0.1,0.2,0.1,0.4C14.2,7.9,14,8,13.8,8z"/>
<path d="M17.2,8.3c0,0.1,0,0.2,0,0.3c0,0.1-0.1,0.2-0.2,0.2c-0.1,0-0.2-0.1-0.2-0.1c-0.1-0.2-0.1-0.4-0.2-0.5
	c-0.1-0.3-0.1-0.5-0.1-0.8c0-0.1,0-0.2,0-0.3c0-0.1,0.1-0.2,0.2-0.2c0.1,0,0.2,0,0.2,0.1C17,7,17,7.1,17,7.2
	C17.2,7.5,17.2,7.9,17.2,8.3z"/>
</svg>
