<?xml version="1.0" encoding="utf-8"?>
<!-- Generator: Adobe Illustrator 19.0.0, SVG Export Plug-In . SVG Version: 6.00 Build 0)  -->
<svg version="1.1" id="Layer_2" xmlns="http://www.w3.org/2000/svg" xmlns:xlink="http://www.w3.org/1999/xlink" x="0px" y="0px"
	 viewBox="0 0 24 24" style="enable-background:new 0 0 24 24;" xml:space="preserve">
<g>
	<g>
		<path d="M21.5,10.8c0.2-0.1,0.4-0.2,0.7-0.4c0.6-0.3,1.1-0.6,1.7-0.9C24,9.5,24,9.5,24,9.6c0,0.7,0,1.5,0,2.2c0,0.1,0,0.1-0.1,0.1
			c-1.9,0-3.9,0-5.8,0c-0.1,0-0.1,0-0.1-0.1c0-0.2,0-0.5,0-0.7c0-0.1,0-0.1,0.1-0.1c0.2,0,0.3,0,0.5,0c0.1,0,0.1,0,0.1-0.1
			c0-1,0-2,0-3c0-0.1,0-0.1-0.1-0.1c-0.2,0-0.3,0-0.5,0c-0.1,0-0.1,0-0.1-0.1c0-0.2,0-0.5,0-0.7c0-0.1,0-0.1,0.1-0.1
			c1.4,0,2.7,0,4.1,0c0.1,0,0.1,0,0.1,0.1c0,0.2,0,0.5,0,0.7c0,0.1,0,0.1-0.1,0.1c-0.2,0-0.3,0-0.5,0c-0.1,0-0.1,0-0.1,0.1
			C21.5,8.9,21.5,9.9,21.5,10.8z"/>
		<path d="M6,11.1c0,0.2,0,0.5,0,0.7C6,11.9,6,12,5.9,12c-1.9,0-3.9,0-5.8,0C0,12,0,12,0,11.9c0-0.2,0-0.5,0-0.7C0,11.1,0,11,0.1,11
			c0.2,0,0.3,0,0.5,0c0.1,0,0.1,0,0.1-0.1c0-1,0-2,0-3c0-0.1,0-0.1-0.1-0.1c-0.2,0-0.3,0-0.5,0C0,7.9,0,7.8,0,7.8c0-0.2,0-0.5,0-0.7
			c0-0.1,0.1-0.1,0.1-0.1c0.9,0,1.9,0,2.8,0c0.4,0,0.8,0,1.2,0c0.1,0,0.1,0,0.1,0.1c0,0.2,0,0.5,0,0.7c0,0.1,0,0.1-0.1,0.1
			c-0.2,0-0.3,0-0.5,0c-0.1,0-0.1,0-0.1,0.1c0,1,0,1.9,0,2.9c0.1,0,0.1,0,0.2-0.1c0.7-0.4,1.5-0.8,2.2-1.2C6,9.5,6,9.5,6,9.6
			c0,0.2,0,0.4,0,0.6"/>
		<path d="M6,11.1c0-0.3,0-0.6,0-0.9c0.3-0.3,0.7-0.7,1-1c0.5-0.5,1.1-1.1,1.6-1.6c0.1-0.1,0.1-0.1,0.2,0C9.6,8.3,10.3,9,11,9.7
			c0.1,0.1,0.2,0.1,0.3,0c0.3-0.3,0.5-0.6,0.8-0.8c0,0,0.1-0.1,0.1-0.1c0,0.3,0,0.6,0,0.9c-1.2,1.2-2.5,2.5-3.7,3.7
			c-0.1,0.1-0.1,0.1-0.2,0c-0.1-0.1-0.2-0.2-0.3-0.3c-0.1-0.1-0.1-0.1,0-0.1c0.2-0.2,0.4-0.4,0.6-0.6c0.1-0.1,0.1-0.1,0-0.2
			c-0.6-0.6-1.2-1.2-1.8-1.8c-0.1-0.1-0.1-0.1-0.2,0C6.4,10.7,6.2,10.9,6,11.1z"/>
		<path d="M8.4,4.1c0.8,0,1.5,0.7,1.5,1.5c0,0.8-0.7,1.5-1.5,1.5c-0.8,0-1.5-0.7-1.5-1.5C6.9,4.7,7.6,4.1,8.4,4.1z"/>
		<path d="M12.3,8c0-0.1,0-0.1-0.1-0.1c-0.2,0-0.3,0-0.5,0c-0.1,0-0.1,0-0.1-0.1c0-0.2,0-0.5,0-0.7c0-0.1,0-0.1,0.1-0.1
			c1.3,0,2.7,0,4,0c0.8,0,1.5,0.4,1.9,1.2c0.5,1,0.4,2-0.2,3c-0.4,0.6-1,0.9-1.7,0.9c-1.4,0-2.7,0-4.1,0c-0.1,0-0.1,0-0.1-0.1
			c0-0.2,0-0.5,0-0.7c0-0.1,0-0.1,0.1-0.1c0.2,0,0.3,0,0.5,0c0.1,0,0.1,0,0.1-0.1 M14.8,10.3c0,0.1,0,0.1,0.1,0.1
			c0.3,0,0.5-0.1,0.6-0.4c0.2-0.4,0.2-0.8,0-1.1c-0.1-0.2-0.3-0.4-0.6-0.4c-0.1,0-0.1,0-0.1,0.1c0,0.3,0,0.5,0,0.8
			C14.8,9.7,14.8,10,14.8,10.3z"/>
	</g>
	<g>
		<path d="M6,17.8v2.1H5v-5.7c0.7,0,1.1,0,1.2,0c0.9,0,1.6,0.1,2,0.4s0.6,0.7,0.6,1.3c0,1.3-0.8,2-2.3,2C6.3,17.8,6.2,17.8,6,17.8z
			 M6,15.1v1.8c0.2,0,0.3,0,0.4,0c0.5,0,0.8-0.1,1-0.2s0.3-0.4,0.3-0.8c0-0.6-0.5-0.9-1.4-0.9C6.2,15.1,6.1,15.1,6,15.1z"/>
		<path d="M9.8,14.2l1-0.2v4.7c0,0.5,0.2,0.8,0.5,0.9c-0.2,0.3-0.4,0.4-0.8,0.4c-0.4,0-0.7-0.3-0.7-0.9V14.2z"/>
		<path d="M14.7,19.9v-0.4c-0.1,0.1-0.3,0.2-0.6,0.3S13.6,20,13.4,20c-1,0-1.5-0.5-1.5-1.5v-2.7h1v2.6c0,0.5,0.2,0.8,0.7,0.8
			c0.2,0,0.4-0.1,0.6-0.2s0.3-0.2,0.4-0.4v-2.9h1v4.2H14.7z"/>
		<path d="M16.4,19.7l0.3-0.8c0.3,0.2,0.6,0.3,1,0.3c0.4,0,0.6-0.1,0.6-0.4c0-0.2-0.1-0.3-0.2-0.4s-0.3-0.2-0.7-0.4
			c-0.7-0.3-1.1-0.7-1.1-1.3c0-0.4,0.1-0.6,0.4-0.8s0.6-0.3,1.1-0.3c0.4,0,0.8,0.1,1.2,0.3l-0.3,0.8c-0.2-0.2-0.5-0.3-0.9-0.3
			c-0.3,0-0.5,0.1-0.5,0.4c0,0.1,0.1,0.2,0.2,0.3s0.4,0.2,0.7,0.3s0.6,0.3,0.8,0.5s0.2,0.5,0.2,0.7c0,0.4-0.1,0.7-0.4,0.9
			S18.2,20,17.8,20c-0.3,0-0.5,0-0.7-0.1S16.7,19.8,16.4,19.7z"/>
	</g>
</g>
</svg>
