<?xml version="1.0" encoding="utf-8"?>
<!-- Generator: Adobe Illustrator 19.0.0, SVG Export Plug-In . SVG Version: 6.00 Build 0)  -->
<svg version="1.1" id="Layer_2" xmlns="http://www.w3.org/2000/svg" xmlns:xlink="http://www.w3.org/1999/xlink" x="0px" y="0px"
	 viewBox="0 0 24 24" style="enable-background:new 0 0 24 24;" xml:space="preserve">
<path d="M0.6,12C0.5,5.7,5.7,0.6,12,0.6c6.3,0,11.5,5.1,11.5,11.4c0,6.3-5.1,11.5-11.5,11.4C5.7,23.4,0.6,18.3,0.6,12z M12,22.7
	c5.9,0,10.7-4.8,10.7-10.7c0-5.9-4.8-10.7-10.7-10.7C6.1,1.3,1.3,6.1,1.3,12C1.3,17.9,6.1,22.7,12,22.7z"/>
<g>
	<g>
		<path d="M21.5,10.4c0,0.6,0,1.3,0,1.9c0,0.1-0.1,0.1-0.2,0.1c-1.5,0-3,0-4.5,0c-0.1,0-0.2,0-0.2-0.2c0,0,0-0.1,0-0.1
			c0-0.4,0-0.4,0.4-0.4c0.1,0,0.2,0,0.2-0.2c0-0.7,0-1.5,0-2.2c0-0.1-0.1-0.2-0.2-0.2c-0.4,0-0.4,0-0.4-0.4c0-0.2,0-0.3,0.3-0.3
			c0.9,0,1.9,0,2.8,0c0.2,0,0.3,0,0.3,0.2c0,0,0,0.1,0,0.1c0,0.4,0,0.4-0.4,0.4c-0.1,0-0.2,0-0.2,0.2c0,0.7,0,1.4,0,2.2
			C20.2,11.1,20.8,10.8,21.5,10.4z"/>
		<path d="M7.3,11.7c0,0.1,0,0.1,0,0.2c0,0.6,0,0.6-0.6,0.6c-1.3,0-2.6,0-3.9,0c-0.2,0-0.3-0.1-0.2-0.3c0,0,0-0.1,0-0.1
			c0-0.4,0-0.4,0.4-0.4c0.1,0,0.2,0,0.2-0.2c0-0.7,0-1.4,0-2.2c0-0.2-0.1-0.2-0.3-0.2c-0.1,0-0.3,0.1-0.3-0.1c0-0.2,0-0.4,0-0.6
			c0-0.1,0.1,0,0.2,0c1,0,2,0,3,0c0.1,0,0.2,0,0.2,0.2c0,0.1,0,0.1,0,0.2c0,0.4,0,0.4-0.4,0.4c-0.1,0-0.2,0-0.2,0.2
			c0,0.7,0,1.4,0,2.2c0.7-0.4,1.3-0.7,1.9-1.1c0.1,0.2,0,0.4,0.1,0.5C7.4,11.2,7.4,11.4,7.3,11.7z"/>
		<path d="M7.3,11.7c0-0.2,0-0.5,0-0.7c0.7-0.7,1.3-1.3,2-2c0.1-0.1,0.2-0.1,0.4,0c0.5,0.5,1,1,1.6,1.6c0.1,0.1,0.2,0.1,0.3,0
			c0.2-0.2,0.4-0.5,0.7-0.6c0,0.2,0,0.5,0,0.7c-1,1-2,2-2.9,2.9c-0.2,0.2-0.2,0-0.3-0.1c-0.1-0.1-0.2-0.1-0.1-0.3
			C9,13,9.3,12.9,9.3,12.7c0-0.2-0.3-0.3-0.4-0.5c-0.3-0.3-0.6-0.6-0.9-0.9c-0.1-0.1-0.2-0.1-0.3,0C7.6,11.4,7.5,11.6,7.3,11.7z"/>
		<path d="M10.4,7.3c0,0.7-0.5,1.2-1.2,1.2C8.5,8.6,8,8,8,7.3c0-0.6,0.5-1.2,1.2-1.2C9.8,6.2,10.4,6.7,10.4,7.3z"/>
		<path d="M12.2,9.9c0-0.1,0-0.2,0-0.3c0-0.4,0-0.4-0.4-0.5c-0.1,0-0.1,0-0.1-0.1c0-0.2,0-0.3,0-0.5c0-0.1,0.1-0.1,0.1-0.1
			c1.1,0,2.2,0,3.3,0c0.9,0,1.5,0.8,1.6,1.7c0,0.4,0,0.9-0.2,1.3c-0.3,0.6-0.8,1-1.5,1c-1,0-2,0-3.1,0c-0.2,0-0.2-0.1-0.2-0.2
			c0,0,0-0.1,0-0.1c0-0.4,0-0.4,0.4-0.4c0.1,0,0.2,0,0.2-0.2c0-0.3,0-0.6,0-0.9C12.1,10.4,12.1,10.1,12.2,9.9z M14.2,11
			c0,0.2,0.1,0.2,0.2,0.2c0.3-0.1,0.4-0.3,0.4-0.7c0-0.4-0.2-0.7-0.5-0.7c0,0,0,0,0,0c-0.1,0-0.2,0-0.2,0.2c0,0.2,0,0.4,0,0.6
			C14.2,10.6,14.2,10.8,14.2,11z"/>
	</g>
	<g>
		<g>
			<path d="M8,16.4v1.4H7.3v-3.3l-0.3,0V14l0.3,0c0.5,0,0.7,0,0.8,0c0.6,0,1,0.1,1.3,0.3c0.3,0.2,0.4,0.5,0.4,0.9
				c0,0.9-0.5,1.3-1.6,1.3C8.2,16.4,8.1,16.4,8,16.4z M8,14.6v1.2c0.1,0,0.2,0,0.3,0c0.3,0,0.5-0.1,0.7-0.2c0.1-0.1,0.2-0.3,0.2-0.5
				c0-0.4-0.3-0.6-1-0.6C8.2,14.5,8.1,14.5,8,14.6z"/>
			<path d="M10.6,14l0.7-0.2v3.1c0,0.3,0.1,0.6,0.3,0.6c-0.1,0.2-0.3,0.3-0.5,0.3c-0.3,0-0.4-0.2-0.4-0.6V14z"/>
			<path d="M13.9,17.8c-0.1-0.1-0.1-0.2-0.1-0.2c-0.1,0.1-0.2,0.1-0.4,0.2c-0.2,0.1-0.3,0.1-0.4,0.1c-0.7,0-1-0.3-1-1V15h0.7v1.8
				c0,0.4,0.2,0.5,0.5,0.5c0.1,0,0.3,0,0.4-0.1c0.1-0.1,0.2-0.2,0.3-0.3V15h0.7c0,0-0.1,1.7,0,2.3c0,0.1,0.3,0,0.3,0v0.5
				C14.7,17.8,14.1,17.9,13.9,17.8z"/>
			<path d="M15,17.6l0.2-0.5c0.2,0.2,0.4,0.2,0.7,0.2c0.3,0,0.4-0.1,0.4-0.3c0-0.1,0-0.2-0.1-0.3c-0.1-0.1-0.2-0.1-0.4-0.2
				c-0.5-0.2-0.7-0.5-0.7-0.8c0-0.2,0.1-0.4,0.3-0.6c0.2-0.1,0.4-0.2,0.7-0.2c0.3,0,0.6,0.1,0.8,0.2l-0.2,0.5
				c-0.1-0.1-0.3-0.2-0.6-0.2c-0.2,0-0.3,0.1-0.3,0.3c0,0.1,0,0.1,0.1,0.2c0.1,0.1,0.2,0.1,0.5,0.2c0.2,0.1,0.4,0.2,0.5,0.4
				c0.1,0.1,0.2,0.3,0.2,0.5c0,0.3-0.1,0.5-0.3,0.6c-0.2,0.1-0.5,0.2-0.8,0.2c-0.2,0-0.3,0-0.4,0C15.3,17.8,15.2,17.7,15,17.6z"/>
		</g>
		<path d="M14.5,17.4"/>
	</g>
</g>
</svg>
