<?xml version="1.0" encoding="utf-8"?>
<!-- Generator: Adobe Illustrator 19.0.0, SVG Export Plug-In . SVG Version: 6.00 Build 0)  -->
<svg version="1.1" id="Layer_2" xmlns="http://www.w3.org/2000/svg" xmlns:xlink="http://www.w3.org/1999/xlink" x="0px" y="0px"
	 viewBox="0 0 24 24" style="enable-background:new 0 0 24 24;" xml:space="preserve">
<path d="M5.1,12.8c1,1,2,2,3.1,3C8.1,15.9,8,15.9,8,15.9c-0.6,0-1.3,0-1.9,0c-0.1,0-0.2,0-0.2-0.1c-1.2-1.2-2.4-2.4-3.6-3.7
	c-0.1-0.1-0.1-0.1,0-0.2c1.2-1.2,2.4-2.4,3.6-3.7C6,8.1,6,8.1,6.1,8.1c1.5,0,2.9,0,4.4,0c0.6,0,1.1,0.2,1.5,0.6
	c0.7,0.7,1.5,1.5,2.2,2.2c0.1,0.1,0.3,0.2,0.5,0.2c1.3,0,2.6,0,4,0h0.1c-1-1-2-2-3-3.1c0-0.1,0.1,0,0.1,0c0.6,0,1.3,0,1.9,0
	C17.9,8,18,8,18,8.1c1.2,1.2,2.4,2.5,3.7,3.7c0.1,0.1,0.1,0.1,0,0.2c-1.2,1.2-2.4,2.4-3.6,3.7c-0.1,0.1-0.1,0.1-0.2,0.1
	c-1.5,0-2.9,0-4.4,0c-0.6,0-1.1-0.2-1.5-0.6c-0.7-0.7-1.5-1.5-2.2-2.2c-0.2-0.2-0.4-0.3-0.6-0.3c-1.3,0-2.6,0-3.8,0
	C5.2,12.8,5.2,12.8,5.1,12.8L5.1,12.8z M5.2,11.2c0.1,0,0.1,0,0.2,0c1.2,0,2.5,0,3.7,0c0.7,0,1.4,0.2,1.9,0.8
	c0.7,0.7,1.4,1.4,2.1,2.1c0.1,0.2,0.3,0.2,0.5,0.2c1.2,0,2.5,0,3.7,0c0.1,0,0.1,0,0.2-0.1c0.5-0.5,0.9-1,1.4-1.4l0,0
	c-0.1,0-0.1,0-0.2,0c-1.3,0-2.5,0-3.8,0c-0.7,0-1.2-0.2-1.7-0.7c-0.7-0.7-1.4-1.4-2.1-2.2c-0.2-0.2-0.3-0.2-0.6-0.2
	c-1.2,0-2.4,0-3.7,0c-0.1,0-0.2,0-0.3,0.1c-0.4,0.4-0.8,0.8-1.2,1.2C5.3,11,5.2,11.1,5.2,11.2C5.1,11.2,5.1,11.2,5.2,11.2z"/>
</svg>
