<?xml version="1.0" encoding="utf-8"?>
<!-- Generator: Adobe Illustrator 19.0.0, SVG Export Plug-In . SVG Version: 6.00 Build 0)  -->
<svg version="1.1" id="Layer_2" xmlns="http://www.w3.org/2000/svg" xmlns:xlink="http://www.w3.org/1999/xlink" x="0px" y="0px"
	 viewBox="0 0 24 24" style="enable-background:new 0 0 24 24;" xml:space="preserve">
<path d="M3.7,13.1c1.2,1.2,2.4,2.4,3.7,3.6c-0.1,0.1-0.2,0.1-0.2,0.1c-0.7,0-1.6,0-2.3,0c-0.1,0-0.2,0-0.2-0.1
	c-1.4-1.4-2.9-2.9-4.3-4.5c-0.1-0.1-0.1-0.1,0-0.2c1.4-1.4,2.9-2.9,4.3-4.5c0.1-0.1,0.1-0.1,0.2-0.1c1.8,0,3.5,0,5.3,0
	c0.7,0,1.3,0.2,1.8,0.7c0.8,0.8,1.8,1.8,2.7,2.7c0.1,0.1,0.4,0.2,0.6,0.2c1.6,0,3.1,0,4.8,0h0.1c-1.2-1.2-2.4-2.4-3.6-3.7
	c0-0.1,0.1,0,0.1,0c0.7,0,1.6,0,2.3,0c0.1,0,0.2,0,0.2,0.1c1.4,1.4,2.9,3,4.5,4.5c0.1,0.1,0.1,0.1,0,0.2c-1.4,1.4-2.9,2.9-4.3,4.5
	c-0.1,0.1-0.1,0.1-0.2,0.1c-1.8,0-3.5,0-5.3,0c-0.7,0-1.3-0.2-1.8-0.7c-0.8-0.8-1.8-1.8-2.7-2.7c-0.2-0.2-0.5-0.4-0.7-0.4
	c-1.6,0-3.1,0-4.6,0C3.8,13.1,3.8,13.1,3.7,13.1L3.7,13.1z M3.8,11.1c0.1,0,0.1,0,0.2,0c1.4,0,3,0,4.5,0c0.8,0,1.7,0.2,2.3,1
	c0.8,0.8,1.7,1.7,2.5,2.5c0.1,0.2,0.4,0.2,0.6,0.2c1.4,0,3,0,4.5,0c0.1,0,0.1,0,0.2-0.1c0.6-0.6,1.1-1.2,1.7-1.7l0,0
	c-0.1,0-0.1,0-0.2,0c-1.6,0-3,0-4.6,0c-0.8,0-1.4-0.2-2.1-0.8c-0.8-0.8-1.7-1.7-2.5-2.7c-0.2-0.2-0.4-0.2-0.7-0.2
	c-1.4,0-2.9,0-4.5,0c-0.1,0-0.2,0-0.4,0.1c-0.5,0.5-1,1-1.4,1.4C3.9,10.9,3.8,11,3.8,11.1C3.7,11.1,3.7,11.1,3.8,11.1z"/>
</svg>
