<?xml version="1.0" encoding="utf-8"?>
<!-- Generator: Adobe Illustrator 19.0.0, SVG Export Plug-In . SVG Version: 6.00 Build 0)  -->
<svg version="1.1" id="Layer_2" xmlns="http://www.w3.org/2000/svg" xmlns:xlink="http://www.w3.org/1999/xlink" x="0px" y="0px"
	 viewBox="0 0 24 24" style="enable-background:new 0 0 24 24;" xml:space="preserve">
<path d="M10.3,16.9H2.1c-0.3,0-0.5-0.2-0.5-0.5V8.2c0-0.3,0.2-0.5,0.5-0.5h8.2c0.3,0,0.5,0.2,0.5,0.5v8.2
	C10.8,16.7,10.6,16.9,10.3,16.9z M4.5,14.1c0.4,0.4,0.9,0.7,1.6,0.7c0.8,0,1.4-0.2,1.8-0.7c0.4-0.4,0.6-1,0.6-1.8s-0.2-1.4-0.6-1.8
	c-0.4-0.4-1-0.6-1.7-0.6S5,10.1,4.6,10.6S4,11.6,4,12.3C3.9,13,4.1,13.6,4.5,14.1z M5.2,11.1c0.2-0.3,0.5-0.4,1-0.4
	c0.9,0,1.4,0.6,1.4,1.7c0,0.6-0.1,1-0.4,1.3C6.9,13.9,6.6,14,6.1,14c-0.4,0-0.7-0.2-0.9-0.5c-0.2-0.3-0.3-0.7-0.3-1.3
	C4.9,11.8,5,11.4,5.2,11.1z"/>
<path d="M19.3,19.5c0.1-0.1,0.1-0.2,0.1-0.3v-5.6c0-0.2-0.2-0.3-0.3-0.3l-5,2.8c-0.2,0.1-0.2,0.3,0,0.4L19.3,19.5z"/>
<path d="M5.8,17.7H11c0.4,0,0.6-0.2,0.6-0.6v-1.2l0,0l7.6,4.3l0,0c-0.1,0-0.2,0.1-0.4,0.1H6.5c-0.4,0-0.7-0.3-0.7-0.7v-1.7L5.8,17.7
	z"/>
<path d="M11.6,15.1V7.5c0-0.4-0.2-0.6-0.6-0.6c0,0-4.3,0-4.3,0V5.2c0-0.5,0.4-0.9,0.9-0.9h10.2c0.5,0,0.9,0.4,0.9,0.9v7.3
	c0,0.1-0.1,0.2-0.2,0.3L13,15.9"/>
</svg>
