<?xml version="1.0" encoding="utf-8"?>
<!-- Generator: Adobe Illustrator 19.0.0, SVG Export Plug-In . SVG Version: 6.00 Build 0)  -->
<svg version="1.1" id="Layer_2" xmlns="http://www.w3.org/2000/svg" xmlns:xlink="http://www.w3.org/1999/xlink" x="0px" y="0px"
	 viewBox="0 0 24 24" style="enable-background:new 0 0 24 24;" xml:space="preserve">
<path d="M11.7,17.2H2.4c-0.3,0-0.5-0.2-0.5-0.5V7.4c0-0.3,0.2-0.5,0.5-0.5h9.3c0.3,0,0.5,0.2,0.5,0.5v9.3C12.2,17,12,17.2,11.7,17.2
	z M7.7,10.1h1.8c0.1,0,0.1,0,0.1-0.1V9.3c0-0.1,0-0.1-0.1-0.1H4.7c-0.1,0-0.1,0-0.1,0.1V10c0,0.1,0,0.1,0.1,0.1h1.7
	c0.1,0,0.1,0,0.1,0.1V15c0,0.1,0,0.1,0.1,0.1h0.9c0.1,0,0.1,0,0.1-0.1L7.7,10.1C7.6,10.2,7.6,10.1,7.7,10.1z"/>
<circle cx="19.5" cy="6.6" r="2.1"/>
<path d="M7.8,18.1h4.6c0.3,0,0.6-0.2,0.6-0.6c0,0,0-7.8,0-7.8h3.8c0.6,0,1.1,0.5,1.1,1.1v5.4l0,0c0,2.9-2.3,5.2-5.2,5.2
	C10.5,21.4,8.6,20,7.8,18.1"/>
<path d="M13,8.9V6.8c0-0.3-0.2-0.6-0.6-0.6c0,0-2.6,0-2.6,0c0-0.1-0.1-0.3-0.1-0.4c0-1.7,1.4-3.1,3.1-3.1S16,4.1,16,5.8
	C16,7.5,14.7,8.9,13,8.9z"/>
<path d="M18.1,18.6c0.3-0.7,0.5-1.5,0.5-2.3l0,0v-6.1c0-0.2,0-0.4-0.1-0.5l0,0l2.9,0c0.4,0,0.7,0.3,0.7,0.8v4.2l0,0
	c0,2.2-1.5,4-3.4,4C18.4,18.7,18.2,18.7,18.1,18.6"/>
</svg>
