<?xml version="1.0" encoding="utf-8"?>
<!-- Generator: Adobe Illustrator 19.0.0, SVG Export Plug-In . SVG Version: 6.00 Build 0)  -->
<svg version="1.1" id="Layer_2" xmlns="http://www.w3.org/2000/svg" xmlns:xlink="http://www.w3.org/1999/xlink" x="0px" y="0px"
	 viewBox="0 0 24 24" style="enable-background:new 0 0 24 24;" xml:space="preserve">
<g>
	<path d="M15,17H6.4c-1.7,0-3-1.3-3-3V8c0-0.6,0.4-1,1-1H13c1.7,0,3,1.3,3,3V16C16,16.5,15.5,17,15,17z"/>
	<path d="M16.2,12.8c0,0.4,0.2,0.7,0.4,1l3,2.6c0.4,0.4,1-0.1,1-0.8V8.4c0-0.7-0.5-1.2-1-0.8l-3,2.6c-0.3,0.2-0.4,0.6-0.4,1V12.8z"
		/>
</g>
</svg>
